<mxfile host="app.diagrams.net" modified="2020-10-14T04:23:29.743Z" agent="5.0 (Windows NT 10.0; Win64; x64) AppleWebKit/537.36 (KHTML, like Gecko) Chrome/85.0.4183.121 Safari/537.36" etag="EoETrTmvezRv5dU9WTLa" version="13.7.9" type="github">
  <diagram id="Nf25iYnUFrOJCkZ64i39" name="第 1 页">
    <mxGraphModel dx="1422" dy="772" grid="1" gridSize="10" guides="1" tooltips="1" connect="1" arrows="1" fold="1" page="1" pageScale="1" pageWidth="827" pageHeight="1169" math="0" shadow="0">
      <root>
        <mxCell id="0" />
        <mxCell id="1" parent="0" />
        <mxCell id="vVoSuetXEx5S4VQaUPr3-1" value="" style="rounded=0;whiteSpace=wrap;html=1;" vertex="1" parent="1">
          <mxGeometry x="140" y="50" width="600" height="430" as="geometry" />
        </mxCell>
        <mxCell id="vVoSuetXEx5S4VQaUPr3-2" value="货架" style="rounded=0;whiteSpace=wrap;html=1;" vertex="1" parent="1">
          <mxGeometry x="290" y="50" width="420" height="30" as="geometry" />
        </mxCell>
        <mxCell id="vVoSuetXEx5S4VQaUPr3-3" value="冷藏柜" style="rounded=0;whiteSpace=wrap;html=1;" vertex="1" parent="1">
          <mxGeometry x="160" y="50" width="120" height="70" as="geometry" />
        </mxCell>
        <mxCell id="vVoSuetXEx5S4VQaUPr3-4" value="货架" style="rounded=0;whiteSpace=wrap;html=1;rotation=90;" vertex="1" parent="1">
          <mxGeometry x="590" y="205" width="270" height="30" as="geometry" />
        </mxCell>
        <mxCell id="vVoSuetXEx5S4VQaUPr3-5" value="水池" style="rounded=0;whiteSpace=wrap;html=1;" vertex="1" parent="1">
          <mxGeometry x="680" y="430" width="60" height="50" as="geometry" />
        </mxCell>
        <mxCell id="vVoSuetXEx5S4VQaUPr3-6" value="冰柜" style="rounded=0;whiteSpace=wrap;html=1;" vertex="1" parent="1">
          <mxGeometry x="519" y="100" width="160" height="60" as="geometry" />
        </mxCell>
        <mxCell id="vVoSuetXEx5S4VQaUPr3-7" value="蔬菜堆头架" style="rounded=0;whiteSpace=wrap;html=1;" vertex="1" parent="1">
          <mxGeometry x="341" y="180" width="299" height="140" as="geometry" />
        </mxCell>
        <mxCell id="vVoSuetXEx5S4VQaUPr3-8" value="" style="endArrow=none;html=1;exitX=0;exitY=0.5;exitDx=0;exitDy=0;entryX=1;entryY=0.5;entryDx=0;entryDy=0;dashed=1;" edge="1" parent="1" source="vVoSuetXEx5S4VQaUPr3-7" target="vVoSuetXEx5S4VQaUPr3-7">
          <mxGeometry width="50" height="50" relative="1" as="geometry">
            <mxPoint x="390" y="270" as="sourcePoint" />
            <mxPoint x="440" y="220" as="targetPoint" />
          </mxGeometry>
        </mxCell>
        <mxCell id="vVoSuetXEx5S4VQaUPr3-9" value="" style="verticalLabelPosition=bottom;html=1;verticalAlign=top;align=center;shape=mxgraph.floorplan.doorSlidingGlass;dx=0.25;rotation=-90;flipH=0;flipV=1;" vertex="1" parent="1">
          <mxGeometry x="55.75" y="352.25" width="176.5" height="10" as="geometry" />
        </mxCell>
        <mxCell id="vVoSuetXEx5S4VQaUPr3-10" value="绞肉机" style="rounded=0;whiteSpace=wrap;html=1;" vertex="1" parent="1">
          <mxGeometry x="610" y="430" width="60" height="50" as="geometry" />
        </mxCell>
        <mxCell id="vVoSuetXEx5S4VQaUPr3-11" value="鱼池" style="rounded=0;whiteSpace=wrap;html=1;" vertex="1" parent="1">
          <mxGeometry x="680" y="355" width="60" height="75" as="geometry" />
        </mxCell>
        <mxCell id="vVoSuetXEx5S4VQaUPr3-12" value="" style="verticalLabelPosition=bottom;html=1;verticalAlign=top;align=center;shape=mxgraph.floorplan.doorSlidingGlass;dx=0.25;rotation=90;" vertex="1" parent="1">
          <mxGeometry x="47" y="172" width="194" height="10" as="geometry" />
        </mxCell>
        <mxCell id="vVoSuetXEx5S4VQaUPr3-13" value="收银台" style="rounded=0;whiteSpace=wrap;html=1;" vertex="1" parent="1">
          <mxGeometry x="300" y="140" width="150" height="40" as="geometry" />
        </mxCell>
        <mxCell id="vVoSuetXEx5S4VQaUPr3-14" value="" style="verticalLabelPosition=bottom;html=1;verticalAlign=top;align=center;shape=mxgraph.floorplan.chair;rotation=-180;" vertex="1" parent="1">
          <mxGeometry x="350" y="420" width="41" height="52" as="geometry" />
        </mxCell>
        <mxCell id="vVoSuetXEx5S4VQaUPr3-15" value="" style="group" vertex="1" connectable="0" parent="1">
          <mxGeometry x="150" y="350" width="420" height="100" as="geometry" />
        </mxCell>
        <mxCell id="vVoSuetXEx5S4VQaUPr3-16" value="" style="verticalLabelPosition=bottom;html=1;verticalAlign=top;align=center;shape=mxgraph.floorplan.table;" vertex="1" parent="vVoSuetXEx5S4VQaUPr3-15">
          <mxGeometry width="420" height="100" as="geometry" />
        </mxCell>
        <mxCell id="vVoSuetXEx5S4VQaUPr3-17" value="电脑手机维修工作台" style="text;html=1;align=center;verticalAlign=middle;resizable=0;points=[];autosize=1;" vertex="1" parent="vVoSuetXEx5S4VQaUPr3-15">
          <mxGeometry x="113.5909090909091" y="40" width="120" height="20" as="geometry" />
        </mxCell>
        <mxCell id="vVoSuetXEx5S4VQaUPr3-18" value="包装、塑封机" style="rounded=1;whiteSpace=wrap;html=1;dashed=1;" vertex="1" parent="1">
          <mxGeometry x="270" y="915" width="100" height="40" as="geometry" />
        </mxCell>
        <mxCell id="vVoSuetXEx5S4VQaUPr3-19" value="送菜到家&lt;br&gt;服务" style="rounded=1;whiteSpace=wrap;html=1;fontStyle=1" vertex="1" parent="1">
          <mxGeometry x="130" y="630" width="80" height="40" as="geometry" />
        </mxCell>
        <mxCell id="vVoSuetXEx5S4VQaUPr3-20" value="蔬果类推广平台" style="rounded=1;whiteSpace=wrap;html=1;dashed=1;" vertex="1" parent="1">
          <mxGeometry x="270" y="530" width="100" height="40" as="geometry" />
        </mxCell>
        <mxCell id="vVoSuetXEx5S4VQaUPr3-21" value="蔬果配送方式" style="rounded=1;whiteSpace=wrap;html=1;dashed=1;" vertex="1" parent="1">
          <mxGeometry x="270" y="630" width="100" height="40" as="geometry" />
        </mxCell>
        <mxCell id="vVoSuetXEx5S4VQaUPr3-22" value="" style="edgeStyle=elbowEdgeStyle;elbow=horizontal;endArrow=classic;html=1;exitX=1;exitY=0.5;exitDx=0;exitDy=0;" edge="1" parent="1" source="vVoSuetXEx5S4VQaUPr3-19" target="vVoSuetXEx5S4VQaUPr3-20">
          <mxGeometry width="50" height="50" relative="1" as="geometry">
            <mxPoint x="180" y="600" as="sourcePoint" />
            <mxPoint x="230" y="550" as="targetPoint" />
          </mxGeometry>
        </mxCell>
        <mxCell id="vVoSuetXEx5S4VQaUPr3-23" value="" style="edgeStyle=elbowEdgeStyle;elbow=horizontal;endArrow=classic;html=1;exitX=1;exitY=0.5;exitDx=0;exitDy=0;entryX=0;entryY=0.5;entryDx=0;entryDy=0;" edge="1" parent="1" source="vVoSuetXEx5S4VQaUPr3-19" target="vVoSuetXEx5S4VQaUPr3-18">
          <mxGeometry width="50" height="50" relative="1" as="geometry">
            <mxPoint x="220" y="660" as="sourcePoint" />
            <mxPoint x="280" y="560" as="targetPoint" />
          </mxGeometry>
        </mxCell>
        <mxCell id="vVoSuetXEx5S4VQaUPr3-24" value="" style="edgeStyle=elbowEdgeStyle;elbow=horizontal;endArrow=classic;html=1;exitX=1;exitY=0.5;exitDx=0;exitDy=0;entryX=0;entryY=0.5;entryDx=0;entryDy=0;" edge="1" parent="1" source="vVoSuetXEx5S4VQaUPr3-19" target="vVoSuetXEx5S4VQaUPr3-21">
          <mxGeometry width="50" height="50" relative="1" as="geometry">
            <mxPoint x="230" y="670" as="sourcePoint" />
            <mxPoint x="290" y="570" as="targetPoint" />
          </mxGeometry>
        </mxCell>
        <mxCell id="vVoSuetXEx5S4VQaUPr3-25" value="微信、支付宝" style="rounded=1;whiteSpace=wrap;html=1;dashed=1;" vertex="1" parent="1">
          <mxGeometry x="414" y="515" width="76" height="30" as="geometry" />
        </mxCell>
        <mxCell id="vVoSuetXEx5S4VQaUPr3-26" value="美团、饿了么" style="rounded=1;whiteSpace=wrap;html=1;dashed=1;" vertex="1" parent="1">
          <mxGeometry x="414" y="555" width="76" height="30" as="geometry" />
        </mxCell>
        <mxCell id="vVoSuetXEx5S4VQaUPr3-27" value="邻居买回家还能持续保鲜" style="rounded=1;whiteSpace=wrap;html=1;dashed=1;" vertex="1" parent="1">
          <mxGeometry x="416" y="900" width="76" height="70" as="geometry" />
        </mxCell>
        <mxCell id="vVoSuetXEx5S4VQaUPr3-28" value="" style="edgeStyle=elbowEdgeStyle;elbow=horizontal;endArrow=classic;html=1;exitX=1;exitY=0.5;exitDx=0;exitDy=0;entryX=0;entryY=0.5;entryDx=0;entryDy=0;" edge="1" parent="1" source="vVoSuetXEx5S4VQaUPr3-20" target="vVoSuetXEx5S4VQaUPr3-25">
          <mxGeometry width="50" height="50" relative="1" as="geometry">
            <mxPoint x="220" y="660" as="sourcePoint" />
            <mxPoint x="280" y="560" as="targetPoint" />
          </mxGeometry>
        </mxCell>
        <mxCell id="vVoSuetXEx5S4VQaUPr3-29" value="" style="edgeStyle=elbowEdgeStyle;elbow=horizontal;endArrow=classic;html=1;exitX=1;exitY=0.5;exitDx=0;exitDy=0;entryX=0;entryY=0.5;entryDx=0;entryDy=0;" edge="1" parent="1" source="vVoSuetXEx5S4VQaUPr3-20" target="vVoSuetXEx5S4VQaUPr3-26">
          <mxGeometry width="50" height="50" relative="1" as="geometry">
            <mxPoint x="380" y="560" as="sourcePoint" />
            <mxPoint x="424" y="540" as="targetPoint" />
          </mxGeometry>
        </mxCell>
        <mxCell id="vVoSuetXEx5S4VQaUPr3-30" value="" style="edgeStyle=elbowEdgeStyle;elbow=horizontal;endArrow=classic;html=1;exitX=1;exitY=0.5;exitDx=0;exitDy=0;entryX=0;entryY=0.5;entryDx=0;entryDy=0;" edge="1" parent="1" source="vVoSuetXEx5S4VQaUPr3-18" target="vVoSuetXEx5S4VQaUPr3-27">
          <mxGeometry width="50" height="50" relative="1" as="geometry">
            <mxPoint x="380" y="845" as="sourcePoint" />
            <mxPoint x="424" y="845" as="targetPoint" />
          </mxGeometry>
        </mxCell>
        <mxCell id="vVoSuetXEx5S4VQaUPr3-31" value="领走商户订单号及商品" style="rounded=1;whiteSpace=wrap;html=1;dashed=1;" vertex="1" parent="1">
          <mxGeometry x="544" y="740" width="86" height="30" as="geometry" />
        </mxCell>
        <mxCell id="vVoSuetXEx5S4VQaUPr3-32" value="返回交易订单号" style="rounded=1;whiteSpace=wrap;html=1;dashed=1;" vertex="1" parent="1">
          <mxGeometry x="544" y="820" width="90" height="25" as="geometry" />
        </mxCell>
        <mxCell id="vVoSuetXEx5S4VQaUPr3-33" value="消费者填写交易订单号" style="rounded=1;whiteSpace=wrap;html=1;dashed=1;" vertex="1" parent="1">
          <mxGeometry x="683" y="780" width="87" height="36.25" as="geometry" />
        </mxCell>
        <mxCell id="vVoSuetXEx5S4VQaUPr3-34" value="用户下单并支付，产生交易号及商户订单号" style="rounded=1;whiteSpace=wrap;html=1;dashed=1;" vertex="1" parent="1">
          <mxGeometry x="414" y="600" width="76" height="60" as="geometry" />
        </mxCell>
        <mxCell id="vVoSuetXEx5S4VQaUPr3-35" value="" style="edgeStyle=elbowEdgeStyle;elbow=horizontal;endArrow=classic;html=1;exitX=1;exitY=0.5;exitDx=0;exitDy=0;entryX=0;entryY=0.5;entryDx=0;entryDy=0;" edge="1" parent="1" source="vVoSuetXEx5S4VQaUPr3-21" target="vVoSuetXEx5S4VQaUPr3-34">
          <mxGeometry width="50" height="50" relative="1" as="geometry">
            <mxPoint x="380" y="660" as="sourcePoint" />
            <mxPoint x="424" y="635" as="targetPoint" />
          </mxGeometry>
        </mxCell>
        <mxCell id="vVoSuetXEx5S4VQaUPr3-36" value="散步的邻居&lt;br&gt;每单现结支付&lt;br&gt;或者预存消费" style="rounded=1;whiteSpace=wrap;html=1;dashed=1;" vertex="1" parent="1">
          <mxGeometry x="414" y="710" width="76" height="60" as="geometry" />
        </mxCell>
        <mxCell id="vVoSuetXEx5S4VQaUPr3-37" value="" style="edgeStyle=elbowEdgeStyle;elbow=horizontal;endArrow=classic;html=1;exitX=1;exitY=0.5;exitDx=0;exitDy=0;entryX=0;entryY=0.5;entryDx=0;entryDy=0;dashed=1;dashPattern=1 2;" edge="1" parent="1" source="vVoSuetXEx5S4VQaUPr3-36" target="vVoSuetXEx5S4VQaUPr3-31">
          <mxGeometry width="50" height="50" relative="1" as="geometry">
            <mxPoint x="494" y="810" as="sourcePoint" />
            <mxPoint x="544" y="760" as="targetPoint" />
          </mxGeometry>
        </mxCell>
        <mxCell id="vVoSuetXEx5S4VQaUPr3-38" value="" style="edgeStyle=elbowEdgeStyle;elbow=horizontal;endArrow=classic;html=1;exitX=1;exitY=0.5;exitDx=0;exitDy=0;entryX=0;entryY=0.5;entryDx=0;entryDy=0;dashed=1;dashPattern=1 2;" edge="1" parent="1" source="vVoSuetXEx5S4VQaUPr3-31" target="vVoSuetXEx5S4VQaUPr3-33">
          <mxGeometry width="50" height="50" relative="1" as="geometry">
            <mxPoint x="500" y="767.5" as="sourcePoint" />
            <mxPoint x="554" y="767.5" as="targetPoint" />
          </mxGeometry>
        </mxCell>
        <mxCell id="vVoSuetXEx5S4VQaUPr3-39" value="" style="edgeStyle=elbowEdgeStyle;elbow=horizontal;endArrow=classic;html=1;exitX=1;exitY=0.5;exitDx=0;exitDy=0;entryX=1;entryY=0.5;entryDx=0;entryDy=0;dashed=1;dashPattern=1 2;" edge="1" parent="1" source="vVoSuetXEx5S4VQaUPr3-33" target="vVoSuetXEx5S4VQaUPr3-32">
          <mxGeometry width="50" height="50" relative="1" as="geometry">
            <mxPoint x="510" y="777.5" as="sourcePoint" />
            <mxPoint x="564" y="777.5" as="targetPoint" />
            <Array as="points">
              <mxPoint x="784" y="840" />
            </Array>
          </mxGeometry>
        </mxCell>
        <mxCell id="vVoSuetXEx5S4VQaUPr3-40" value="" style="edgeStyle=elbowEdgeStyle;elbow=horizontal;endArrow=classic;html=1;exitX=0;exitY=0.5;exitDx=0;exitDy=0;entryX=0.5;entryY=1;entryDx=0;entryDy=0;dashed=1;dashPattern=1 2;" edge="1" parent="1" source="vVoSuetXEx5S4VQaUPr3-32" target="vVoSuetXEx5S4VQaUPr3-36">
          <mxGeometry width="50" height="50" relative="1" as="geometry">
            <mxPoint x="783" y="810" as="sourcePoint" />
            <mxPoint x="644" y="852.5" as="targetPoint" />
            <Array as="points">
              <mxPoint x="452" y="843" />
              <mxPoint x="794" y="850" />
            </Array>
          </mxGeometry>
        </mxCell>
        <mxCell id="vVoSuetXEx5S4VQaUPr3-41" value="" style="edgeStyle=elbowEdgeStyle;elbow=horizontal;endArrow=classic;html=1;exitX=1;exitY=0.5;exitDx=0;exitDy=0;entryX=0;entryY=0.5;entryDx=0;entryDy=0;" edge="1" parent="1" source="vVoSuetXEx5S4VQaUPr3-21" target="vVoSuetXEx5S4VQaUPr3-36">
          <mxGeometry width="50" height="50" relative="1" as="geometry">
            <mxPoint x="380" y="660" as="sourcePoint" />
            <mxPoint x="424" y="640" as="targetPoint" />
          </mxGeometry>
        </mxCell>
      </root>
    </mxGraphModel>
  </diagram>
</mxfile>
